<svg width="49" height="49" viewBox="0 0 49 49" fill="none" xmlns="http://www.w3.org/2000/svg">
<g clip-path="url(#clip0_2_488)">
<path d="M38.9994 27.5626H45.9375C47.6127 27.5626 49 28.9499 49 30.6251V45.9376C49 47.6128 47.6127 49.0001 45.9375 49.0001H30.625C28.9498 49.0001 27.5625 47.6128 27.5625 45.9376V30.6251C27.5625 28.9499 28.9498 27.5626 30.625 27.5626H36.0318V25.7435H12.9192V27.5626H18.375C20.0502 27.5626 21.4375 28.9499 21.4375 30.6251V45.9376C21.4375 47.6128 20.0502 49.0001 18.375 49.0001H3.0625C1.38731 49.0001 0 47.6128 0 45.9376V30.6251C0 28.9499 1.38731 27.5626 3.0625 27.5626H9.95312V24.6915C9.95312 23.638 11.293 23.1128 12.4889 23.1128H23.0162V21.3901H16.4119C14.7368 21.3901 13.3494 20.0028 13.3494 18.3276V3.01514C13.3494 1.33995 14.7368 -0.0473633 16.4119 -0.0473633H31.7244C33.3996 -0.0473633 34.7869 1.33995 34.7869 3.01514V18.3276C34.7869 20.0028 33.3996 21.3901 31.7244 21.3901H26.0772V23.1603C30.0493 23.1603 32.4901 23.1128 36.4606 23.1128C37.6565 23.1128 38.9963 23.5921 38.9963 24.6915V27.5626H38.9994ZM45.9375 30.6251H30.625V45.9376H45.9375V30.6251ZM31.726 3.01514H16.4135V18.3276H31.726V3.01514ZM18.375 30.6251H3.0625V45.9376H18.375V30.6251Z" fill="#F5F5F5"/>
</g>
<defs>
<clipPath id="clip0_2_488">
<rect width="49" height="49" fill="white"/>
</clipPath>
</defs>
</svg>
