<svg width="38" height="45" viewBox="0 0 38 45" fill="none" xmlns="http://www.w3.org/2000/svg">
<mask id="path-1-inside-1_2_478" fill="white">
<path fill-rule="evenodd" clip-rule="evenodd" d="M25.3407 7.15622C26.9275 5.29722 27.9971 2.70802 27.7044 0.131836C25.4177 0.219837 22.6513 1.60837 21.0116 3.46517C19.5393 5.11296 18.254 7.74588 18.5995 10.2715C21.1503 10.4629 23.7539 9.01739 25.3407 7.15622ZM31.0607 23.5071C31.1245 30.1664 37.091 32.3817 37.157 32.4103C37.1086 32.5665 36.204 35.5667 34.0142 38.6687C32.1193 41.3483 30.1539 44.017 27.0573 44.0742C24.0158 44.1292 23.0364 42.3275 19.5569 42.3275C16.0795 42.3275 14.9923 44.0168 12.1136 44.129C9.1249 44.2368 6.84703 41.2299 4.9389 38.5591C1.03461 33.0966 -1.94752 23.1222 2.058 16.3903C4.04756 13.0485 7.60191 10.9291 11.4622 10.8763C14.3959 10.8213 17.1668 12.7884 18.9604 12.7884C20.7541 12.7884 24.1214 10.4234 27.6604 10.771C29.1415 10.8304 33.3011 11.3494 35.9707 15.1356C35.755 15.2654 31.0078 17.9411 31.0607 23.5071Z"/>
</mask>
<path fill-rule="evenodd" clip-rule="evenodd" d="M25.3407 7.15622C26.9275 5.29722 27.9971 2.70802 27.7044 0.131836C25.4177 0.219837 22.6513 1.60837 21.0116 3.46517C19.5393 5.11296 18.254 7.74588 18.5995 10.2715C21.1503 10.4629 23.7539 9.01739 25.3407 7.15622ZM31.0607 23.5071C31.1245 30.1664 37.091 32.3817 37.157 32.4103C37.1086 32.5665 36.204 35.5667 34.0142 38.6687C32.1193 41.3483 30.1539 44.017 27.0573 44.0742C24.0158 44.1292 23.0364 42.3275 19.5569 42.3275C16.0795 42.3275 14.9923 44.0168 12.1136 44.129C9.1249 44.2368 6.84703 41.2299 4.9389 38.5591C1.03461 33.0966 -1.94752 23.1222 2.058 16.3903C4.04756 13.0485 7.60191 10.9291 11.4622 10.8763C14.3959 10.8213 17.1668 12.7884 18.9604 12.7884C20.7541 12.7884 24.1214 10.4234 27.6604 10.771C29.1415 10.8304 33.3011 11.3494 35.9707 15.1356C35.755 15.2654 31.0078 17.9411 31.0607 23.5071Z" fill="#F5F5F5"/>
<path d="M25.3407 7.15622L-5.08305 -18.8129L-5.09055 -18.8041L-5.09806 -18.7953L25.3407 7.15622ZM27.7044 0.131836L67.4487 -4.384L63.258 -41.266L26.1662 -39.8386L27.7044 0.131836ZM21.0116 3.46517L50.8391 30.1171L50.9173 30.0296L50.9949 29.9416L21.0116 3.46517ZM18.5995 10.2715L-21.0313 15.6934L-16.6471 47.7394L15.6068 50.1594L18.5995 10.2715ZM31.0607 23.5071L-8.93754 23.8866L-8.9375 23.8904L31.0607 23.5071ZM37.157 32.4103L75.3636 44.2533L85.9899 9.9718L53.0563 -4.29413L37.157 32.4103ZM34.0142 38.6687L66.6731 61.764L66.6825 61.7507L66.6919 61.7374L34.0142 38.6687ZM27.0573 44.0742L27.7805 84.0677L27.7883 84.0676L27.7961 84.0674L27.0573 44.0742ZM12.1136 44.129L13.5555 84.103L13.6135 84.1009L13.6715 84.0987L12.1136 44.129ZM4.9389 38.5591L37.4858 15.3062L37.4814 15.3L4.9389 38.5591ZM2.058 16.3903L-32.3119 -4.0721L-32.3173 -4.06308L2.058 16.3903ZM11.4622 10.8763L12.0092 50.8725L12.1106 50.8711L12.212 50.8692L11.4622 10.8763ZM27.6604 10.771L23.7503 50.5794L24.9016 50.6925L26.0575 50.7389L27.6604 10.771ZM35.9707 15.1356L56.5963 49.4078L93.4436 27.2325L68.6615 -7.91461L35.9707 15.1356ZM25.3407 7.15622L55.7644 33.1254C62.7076 24.9911 69.2805 11.7378 67.4487 -4.384L27.7044 0.131836L-12.0399 4.64767C-13.2863 -6.32179 -8.85266 -14.3967 -5.08305 -18.8129L25.3407 7.15622ZM27.7044 0.131836L26.1662 -39.8386C11.8171 -39.2864 -0.881266 -32.1733 -8.97166 -23.0113L21.0116 3.46517L50.9949 29.9416C47.9381 33.4033 44.7122 35.5604 41.9805 36.924C39.3663 38.2289 35.057 39.8785 29.2426 40.1022L27.7044 0.131836ZM21.0116 3.46517L-8.81583 -23.1867C-14.8482 -16.4356 -23.5249 -2.53271 -21.0313 15.6934L18.5995 10.2715L58.2303 4.84952C59.2033 11.9608 57.728 17.6572 56.3685 21.1281C54.9966 24.6305 53.0874 27.6009 50.8391 30.1171L21.0116 3.46517ZM18.5995 10.2715L15.6068 50.1594C34.204 51.5547 48.3359 41.8384 55.7794 33.1078L25.3407 7.15622L-5.09806 -18.7953C-2.37646 -21.9875 0.946339 -24.589 4.78745 -26.4637C8.62068 -28.3345 14.4109 -30.1552 21.5922 -29.6164L18.5995 10.2715ZM31.0607 23.5071L-8.9375 23.8904C-8.60408 58.6792 23.1599 69.9386 21.2577 69.1146L37.157 32.4103L53.0563 -4.29413C52.9129 -4.35623 57.2032 -2.66697 61.2175 1.03308C65.865 5.31674 70.9618 13.0005 71.0588 23.1237L31.0607 23.5071ZM37.157 32.4103L-1.04959 20.5672C-1.08135 20.6697 -1.00525 20.4223 -0.926721 20.1818C-0.854046 19.9592 -0.781561 19.7469 -0.708927 19.5439C-0.566383 19.1455 -0.419794 18.7729 -0.26255 18.4132C0.0128628 17.7832 0.490817 16.7979 1.33646 15.6L34.0142 38.6687L66.6919 61.7374C69.7274 57.4376 71.7525 53.4012 73.0398 50.4564C73.7029 48.9394 74.2216 47.5936 74.6158 46.4917C74.8143 45.937 74.9825 45.4404 75.1224 45.0118C75.2682 44.5652 75.3832 44.1899 75.3636 44.2533L37.157 32.4103ZM34.0142 38.6687L1.35522 15.5734C0.0300151 17.4474 1.47046 15.1182 4.14662 12.6964C7.66044 9.5165 15.2579 4.28537 26.3186 4.08106L27.0573 44.0742L27.7961 84.0674C41.9533 83.8059 52.0818 77.2118 57.8261 72.0134C62.7328 67.573 66.1034 62.5696 66.6731 61.764L34.0142 38.6687ZM27.0573 44.0742L26.3341 4.08077C27.9773 4.05106 29.6672 4.14568 31.3766 4.37735C33.0852 4.60892 34.6076 4.94952 35.9067 5.31436C37.1719 5.66967 38.1346 6.02331 38.6444 6.21971C39.0353 6.3703 39.3874 6.52076 38.912 6.32185C38.3781 6.09841 35.6117 4.90408 32.0991 3.96508C28.259 2.93855 24.0744 2.32754 19.5569 2.32754V42.3275V82.3275C16.7791 82.3275 14.0218 81.9417 11.439 81.2513C9.18362 80.6484 7.50463 79.9011 8.03064 80.1212C8.08529 80.144 8.96052 80.5154 9.88556 80.8718C10.9295 81.2739 12.4373 81.8182 14.2764 82.3347C18.2394 83.4477 22.7614 84.1585 27.7805 84.0677L27.0573 44.0742ZM19.5569 42.3275V2.32754C15.2842 2.32754 11.2852 2.86716 7.56443 3.80406C4.06511 4.6852 1.36417 5.79656 0.461615 6.1659C-1.73016 7.0628 3.77719 4.42357 10.5558 4.15937L12.1136 44.129L13.6715 84.0987C18.4294 83.9132 22.5189 83.0392 25.8594 82.0024C27.407 81.522 28.6655 81.0458 29.4672 80.7302C29.8656 80.5734 30.2038 80.4352 30.4058 80.3523C30.7827 80.1975 30.5752 80.2821 30.7599 80.2065C30.9237 80.1395 29.3265 80.8215 27.0989 81.3824C24.65 81.9991 22.0909 82.3275 19.5569 82.3275V42.3275ZM12.1136 44.129L10.6718 4.15501C23.967 3.67547 32.4354 10.4361 34.9996 12.7627C37.4245 14.9629 38.6477 16.9325 37.4858 15.3062L4.9389 38.5591L-27.608 61.8121C-26.8618 62.8566 -23.5456 67.665 -18.7575 72.0094C-13.8302 76.4802 -2.7285 84.6904 13.5555 84.103L12.1136 44.129ZM4.9389 38.5591L37.4814 15.3C38.9494 17.354 39.5568 18.9844 39.883 20.773C40.158 22.2808 41.1109 28.9822 36.4333 36.8437L2.058 16.3903L-32.3173 -4.06308C-41.0004 10.5304 -40.5592 25.5849 -38.8185 35.1284C-37.0265 44.9528 -32.9759 54.3017 -27.6036 61.8183L4.9389 38.5591ZM2.058 16.3903L36.4279 36.8527C31.5756 45.0029 22.5738 50.728 12.0092 50.8725L11.4622 10.8763L10.9151 -29.12C-7.36997 -28.8699 -23.4805 -18.9059 -32.3119 -4.0721L2.058 16.3903ZM11.4622 10.8763L12.212 50.8692C8.4104 50.9405 5.46816 50.3488 3.8346 49.9366C2.27015 49.542 1.23527 49.1295 1.50342 49.2308C1.54703 49.2473 1.60998 49.2713 1.76877 49.3323C1.89492 49.3808 2.14237 49.476 2.39468 49.5717C2.87556 49.754 3.81722 50.1076 4.94214 50.4778C6.0562 50.8443 7.80356 51.3796 9.9462 51.8339C12.0625 52.2827 15.1843 52.7884 18.9604 52.7884V12.7884V-27.2116C22.2881 -27.2116 24.931 -26.7674 26.541 -26.426C28.1773 -26.079 29.391 -25.697 29.9472 -25.514C30.5143 -25.3274 30.874 -25.1876 30.7518 -25.2339C30.7026 -25.2525 30.6433 -25.2753 30.4579 -25.3465C30.305 -25.4053 30.0515 -25.5027 29.7742 -25.6074C28.7588 -25.991 26.369 -26.8849 23.4038 -27.633C20.3696 -28.3985 15.9808 -29.2155 10.7124 -29.1167L11.4622 10.8763ZM18.9604 12.7884V52.7884C21.2396 52.7884 23.2253 52.6028 24.8197 52.3813C26.4203 52.1589 27.8041 51.8752 28.9076 51.6143C31.0306 51.1123 32.7439 50.5428 33.6936 50.2132C34.6576 49.8787 35.5213 49.5474 35.8305 49.4294C36.3067 49.2477 36.3109 49.2464 36.3101 49.2467C36.2854 49.2557 35.019 49.7291 33.1091 50.1214C31.1348 50.527 27.8557 50.9827 23.7503 50.5794L27.6604 10.771L31.5704 -29.0374C25.6955 -29.6145 20.6684 -28.9935 17.0114 -28.2423C13.4188 -27.5043 10.5349 -26.5048 9.0018 -25.9481C8.24675 -25.6738 7.52408 -25.3957 7.30601 -25.3125C6.92109 -25.1656 7.12328 -25.2464 7.46414 -25.3646C7.7906 -25.4779 8.91888 -25.8654 10.5006 -26.2393C11.9894 -26.5913 15.0169 -27.2116 18.9604 -27.2116V12.7884ZM27.6604 10.771L26.0575 50.7389C23.9314 50.6536 20.6256 50.3061 16.7834 48.8013C12.63 47.1748 7.34838 43.9558 3.27992 38.1858L35.9707 15.1356L68.6615 -7.91461C55.0905 -27.1616 34.8183 -28.9741 29.2632 -29.1969L27.6604 10.771ZM35.9707 15.1356L15.3451 -19.1366C15.3696 -19.1514 13.405 -18.01 11.0986 -16.2794C8.91518 -14.6412 6.11951 -12.2691 3.29979 -9.04353C-2.44429 -2.47276 -9.08149 8.71809 -8.93754 23.8866L31.0607 23.5071L71.0589 23.1275C71.15 32.73 66.86 39.8001 63.5302 43.6091C61.9177 45.4537 60.3459 46.7847 59.1117 47.7108C57.7543 48.7292 56.464 49.4874 56.5963 49.4078L35.9707 15.1356Z" fill="#867EA2" fill-opacity="0.6" mask="url(#path-1-inside-1_2_478)"/>
</svg>
