<svg width="35" height="33" viewBox="0 0 35 33" fill="none" xmlns="http://www.w3.org/2000/svg">
<path d="M25.2 31.8786H9.8C4.96 31.8786 1 28.1731 1 23.6443V9.23429C1 4.70543 4.96 1 9.8 1H25.2C30.04 1 34 4.70543 34 9.23429V23.6443C34 28.1731 30.04 31.8786 25.2 31.8786Z" stroke="#C7E254" stroke-miterlimit="10" stroke-linecap="round" stroke-linejoin="round"/>
<path d="M11.6451 12.9526H7.38708V25.9017H11.6451V12.9526Z" stroke="#C7E254" stroke-miterlimit="10" stroke-linecap="round" stroke-linejoin="round"/>
<path d="M22.3871 12.9526C21.342 12.9526 20.2968 13.2764 19.4839 13.8159V12.9526H14.8387V25.9017H17.1613H19.4839V18.8876C19.4839 18.0244 20.2968 17.269 21.2258 17.269C22.1549 17.269 22.9678 18.0244 22.9678 18.8876V25.9017H27.6129V17.8085C27.6129 15.1108 25.2904 12.9526 22.3871 12.9526Z" stroke="#C7E254" stroke-miterlimit="10" stroke-linecap="round" stroke-linejoin="round"/>
<path d="M9.51612 9.9648C10.6919 9.9648 11.6451 9.07288 11.6451 7.97263C11.6451 6.87239 10.6919 5.98047 9.51612 5.98047C8.34029 5.98047 7.38708 6.87239 7.38708 7.97263C7.38708 9.07288 8.34029 9.9648 9.51612 9.9648Z" stroke="#C7E254" stroke-miterlimit="10" stroke-linecap="round" stroke-linejoin="round"/>
</svg>
