<svg width="169" height="66" viewBox="0 0 169 66" fill="none" xmlns="http://www.w3.org/2000/svg">
<path d="M2.4 44V22.7H7.65L13.53 39.2L19.41 22.7H24.66V44H20.76V29.3L15.39 43.97H11.67L6.3 29.3V44H2.4ZM35.8373 44.36C34.2573 44.36 32.8673 44.02 31.6673 43.34C30.4873 42.64 29.5673 41.66 28.9073 40.4C28.2673 39.14 27.9473 37.67 27.9473 35.99C27.9473 34.29 28.2673 32.82 28.9073 31.58C29.5673 30.32 30.4873 29.35 31.6673 28.67C32.8673 27.97 34.2573 27.62 35.8373 27.62C37.4173 27.62 38.7973 27.97 39.9773 28.67C41.1573 29.35 42.0673 30.32 42.7073 31.58C43.3673 32.82 43.6973 34.29 43.6973 35.99C43.6973 37.67 43.3673 39.14 42.7073 40.4C42.0673 41.66 41.1573 42.64 39.9773 43.34C38.7973 44.02 37.4173 44.36 35.8373 44.36ZM35.8373 41.24C37.0773 41.24 38.0273 40.78 38.6873 39.86C39.3673 38.94 39.7073 37.65 39.7073 35.99C39.7073 34.35 39.3673 33.07 38.6873 32.15C38.0273 31.21 37.0773 30.74 35.8373 30.74C34.5973 30.74 33.6373 31.21 32.9573 32.15C32.2773 33.07 31.9373 34.35 31.9373 35.99C31.9373 37.65 32.2773 38.94 32.9573 39.86C33.6373 40.78 34.5973 41.24 35.8373 41.24ZM53.6205 44.36C52.0405 44.36 50.6505 44.02 49.4505 43.34C48.2705 42.64 47.3505 41.66 46.6905 40.4C46.0505 39.14 45.7305 37.67 45.7305 35.99C45.7305 34.29 46.0505 32.82 46.6905 31.58C47.3505 30.32 48.2705 29.35 49.4505 28.67C50.6505 27.97 52.0405 27.62 53.6205 27.62C55.2005 27.62 56.5805 27.97 57.7605 28.67C58.9405 29.35 59.8505 30.32 60.4905 31.58C61.1505 32.82 61.4805 34.29 61.4805 35.99C61.4805 37.67 61.1505 39.14 60.4905 40.4C59.8505 41.66 58.9405 42.64 57.7605 43.34C56.5805 44.02 55.2005 44.36 53.6205 44.36ZM53.6205 41.24C54.8605 41.24 55.8105 40.78 56.4705 39.86C57.1505 38.94 57.4905 37.65 57.4905 35.99C57.4905 34.35 57.1505 33.07 56.4705 32.15C55.8105 31.21 54.8605 30.74 53.6205 30.74C52.3805 30.74 51.4205 31.21 50.7405 32.15C50.0605 33.07 49.7205 34.35 49.7205 35.99C49.7205 37.65 50.0605 38.94 50.7405 39.86C51.4205 40.78 52.3805 41.24 53.6205 41.24ZM64.4438 44V27.98H67.9238L68.0738 32.48L67.6238 32.3C67.7838 31.18 68.1138 30.28 68.6138 29.6C69.1138 28.92 69.7238 28.42 70.4438 28.1C71.1638 27.78 71.9538 27.62 72.8138 27.62C73.9938 27.62 74.9838 27.88 75.7838 28.4C76.6038 28.92 77.2238 29.64 77.6438 30.56C78.0638 31.46 78.2738 32.51 78.2738 33.71V44H74.4338V34.94C74.4338 34.04 74.3438 33.28 74.1638 32.66C73.9838 32.04 73.6838 31.57 73.2638 31.25C72.8638 30.91 72.3238 30.74 71.6438 30.74C70.6238 30.74 69.8038 31.1 69.1838 31.82C68.5838 32.54 68.2838 33.58 68.2838 34.94V44H64.4438ZM82.4977 44V22.7H90.7477C93.2477 22.7 95.1977 23.3 96.5977 24.5C97.9977 25.7 98.6977 27.36 98.6977 29.48C98.6977 30.9 98.3777 32.13 97.7377 33.17C97.0977 34.19 96.1877 34.97 95.0077 35.51C93.8277 36.05 92.4077 36.32 90.7477 36.32H86.3977V44H82.4977ZM86.3977 32.93H90.5677C91.8877 32.93 92.8977 32.64 93.5977 32.06C94.3177 31.48 94.6777 30.62 94.6777 29.48C94.6777 28.36 94.3177 27.52 93.5977 26.96C92.8977 26.38 91.8877 26.09 90.5677 26.09H86.3977V32.93ZM106.096 44.36C104.416 44.36 103.066 43.98 102.046 43.22C101.026 42.44 100.516 41.36 100.516 39.98C100.516 38.6 100.946 37.52 101.806 36.74C102.666 35.96 103.976 35.4 105.736 35.06L111.046 34.01C111.046 32.87 110.786 32.02 110.266 31.46C109.746 30.88 108.976 30.59 107.956 30.59C107.036 30.59 106.306 30.81 105.766 31.25C105.246 31.67 104.886 32.28 104.686 33.08L100.786 32.9C101.106 31.2 101.886 29.9 103.126 29C104.366 28.08 105.976 27.62 107.956 27.62C110.236 27.62 111.956 28.2 113.116 29.36C114.296 30.5 114.886 32.14 114.886 34.28V40.1C114.886 40.52 114.956 40.81 115.096 40.97C115.256 41.13 115.486 41.21 115.786 41.21H116.296V44C116.176 44.04 115.976 44.07 115.696 44.09C115.436 44.11 115.166 44.12 114.886 44.12C114.226 44.12 113.636 44.02 113.116 43.82C112.596 43.6 112.196 43.23 111.916 42.71C111.636 42.17 111.496 41.44 111.496 40.52L111.826 40.76C111.666 41.46 111.316 42.09 110.776 42.65C110.256 43.19 109.596 43.61 108.796 43.91C107.996 44.21 107.096 44.36 106.096 44.36ZM106.876 41.57C107.736 41.57 108.476 41.4 109.096 41.06C109.716 40.72 110.196 40.25 110.536 39.65C110.876 39.05 111.046 38.34 111.046 37.52V36.62L106.906 37.46C106.046 37.64 105.426 37.91 105.046 38.27C104.686 38.61 104.506 39.06 104.506 39.62C104.506 40.24 104.706 40.72 105.106 41.06C105.526 41.4 106.116 41.57 106.876 41.57ZM119.051 48.5V45.53H121.091C121.611 45.53 121.991 45.45 122.231 45.29C122.491 45.13 122.691 44.86 122.831 44.48L123.281 43.37H122.171L116.441 27.98H120.431L124.451 39.77L128.291 27.98H132.281L126.011 45.68C125.651 46.68 125.141 47.4 124.481 47.84C123.841 48.28 122.941 48.5 121.781 48.5H119.051Z" fill="white"/>
<circle cx="149" cy="36" r="10" fill="#F5F5F5"/>
<circle cx="164" cy="23" r="5" fill="#F5F5F5"/>
</svg>
