<svg width="32" height="32" viewBox="0 0 32 32" fill="none" xmlns="http://www.w3.org/2000/svg">
<path d="M18.9 18.2002C18.4 18.7002 18 19.3002 17.6 20.0002C15.6 18.3002 13.7 16.5002 12 14.4002C12.7 14.1002 13.3 13.6002 13.8 13.1002C16.1 10.8002 15.3 7.80018 13 5.50018C10.7 3.20018 7.7 2.30018 5.4 4.60018C3.1 6.90018 2.7 11.2002 4.6 13.9002C7.9 19.0002 13 24.1002 18.1 27.5002C20.8 29.3002 25.1 29.0002 27.4 26.7002C29.7 24.4002 28.9 21.4002 26.6 19.1002C24.3 16.8002 21.3 15.8002 18.9 18.2002Z" stroke="#C7E254" stroke-width="1.5" stroke-miterlimit="10" stroke-linejoin="round"/>
</svg>
