<svg width="50" height="50" viewBox="0 0 50 50" fill="none" xmlns="http://www.w3.org/2000/svg">
<path d="M14.3333 5C11.3967 5 9 7.3967 9 10.3333V31.6667C9 34.6033 11.3967 37 14.3333 37H35.6667C38.6033 37 41 34.6033 41 31.6667V10.3333C41 7.3967 38.6033 5 35.6667 5H14.3333ZM14.3333 6.52381H35.6667C37.7799 6.52381 39.4762 8.22006 39.4762 10.3333V31.6667C39.4762 33.7799 37.7799 35.4762 35.6667 35.4762H14.3333C12.2201 35.4762 10.5238 33.7799 10.5238 31.6667V10.3333C10.5238 8.22006 12.2201 6.52381 14.3333 6.52381ZM15.9226 11.8571L22.9494 21.8408L15.8571 30.1429H17.7619L23.8095 23.0625L28.7917 30.1429H34.8393L27.125 19.1815L33.381 11.8571H31.4762L26.2649 17.9598L21.9702 11.8571H15.9226ZM18.8393 13.381H21.1741L31.9226 28.619H29.5878L18.8393 13.381Z" fill="#C7E254"/>
</svg>
