<svg width="44" height="44" viewBox="0 0 44 44" fill="none" xmlns="http://www.w3.org/2000/svg">
<path fill-rule="evenodd" clip-rule="evenodd" d="M31.9757 34.3251C36.0314 34.4728 39.4416 31.3106 39.6 27.2552V16.7551C39.4416 12.6998 36.0314 9.5375 31.9757 9.68514H12.0243C7.96865 9.5375 4.55839 12.6998 4.40002 16.7551V27.2552C4.55839 31.3106 7.96865 34.4728 12.0243 34.3251H31.9757Z" stroke="#C7E254" stroke-width="2" stroke-linecap="round" stroke-linejoin="round"/>
<path fill-rule="evenodd" clip-rule="evenodd" d="M21.1341 17.0329L26.6974 20.8133C27.0579 21.0238 27.2795 21.4098 27.2795 21.8271C27.2795 22.2445 27.0579 22.6305 26.6974 22.8408L21.1341 26.9768C20.0781 27.6931 18.48 27.0824 18.48 25.9631V18.0431C18.48 16.929 20.0798 16.3166 21.1341 17.0329Z" stroke="#C7E254" stroke-width="2" stroke-linecap="round" stroke-linejoin="round"/>
</svg>
