<svg width="38" height="44" viewBox="0 0 38 44" fill="none" xmlns="http://www.w3.org/2000/svg">
<path d="M26.9912 0.87357L24.7436 3.98926C28.2578 5.63138 30.793 8.69088 31.0824 12.2597H7.11369C7.40131 8.69088 9.87931 5.6332 13.3935 3.98926L11.146 0.87357C11.0298 0.647007 11.0888 0.420445 11.2621 0.306258C11.4354 0.19207 11.6659 0.25007 11.8392 0.420445L14.1439 3.70651C15.6429 3.1392 17.3133 2.80026 19.0999 2.80026C20.8865 2.80026 22.4998 3.14101 24.0559 3.70651L26.3606 0.420445C26.4767 0.25007 26.7072 0.193883 26.8787 0.306258C27.0502 0.418633 27.1092 0.647007 26.9948 0.87357H26.9912ZM14.0259 8.97363C14.7745 8.97363 15.3516 8.40632 15.3516 7.67045C15.3516 6.99076 14.7745 6.36726 14.0259 6.36726C13.3345 6.36726 12.7002 6.99076 12.7002 7.67045C12.7002 8.40632 13.3345 8.97363 14.0259 8.97363ZM24.2827 8.97363C25.0312 8.97363 25.6083 8.40632 25.6083 7.67045C25.6083 6.99076 25.0312 6.36726 24.2827 6.36726C23.5913 6.36726 22.957 6.99076 22.957 7.67045C22.957 8.40632 23.5913 8.97363 24.2827 8.97363ZM0.140625 27.0406V16.5626C0.140625 15.089 1.29297 13.8438 2.84909 13.8438C4.34806 13.8438 5.50041 15.0908 5.50041 16.5626V27.0406C5.50041 28.5704 4.34806 29.7594 2.84909 29.7594C1.29297 29.7594 0.140625 28.5704 0.140625 27.0406ZM32.5796 27.0406V16.5626C32.5796 15.089 33.7891 13.8438 35.288 13.8438C36.787 13.8438 37.9965 15.0908 37.9965 16.5626V27.0406C37.9965 28.5704 36.787 29.7594 35.288 29.7594C33.7891 29.7594 32.5796 28.5704 32.5796 27.0406ZM7.17084 33.1016V13.9H31.1396V33.1016C31.1396 34.2344 30.1606 35.1969 29.0082 35.1969H26.6464V41.1437C26.6464 42.6173 25.4369 43.8063 23.9379 43.8063C22.4389 43.8063 21.2294 42.6173 21.2294 41.1437V35.1969H17.0238V41.1437C17.0238 42.6173 15.8715 43.8063 14.3725 43.8063C12.8164 43.8063 11.6641 42.6173 11.6641 41.1437V35.1969H9.24322C8.14803 35.1969 7.17084 34.2344 7.17084 33.1016Z" fill="#F5F5F5"/>
</svg>
