<svg width="234" height="240" viewBox="0 0 234 240" fill="none" xmlns="http://www.w3.org/2000/svg">
<g opacity="0.89" filter="url(#filter0_d_2_534)">
<path d="M197.004 202.951C217.12 182.834 217.12 150.219 197.004 130.103C176.887 109.987 144.272 109.987 124.156 130.103C104.04 150.219 104.04 182.834 124.156 202.951C144.272 223.067 176.887 223.067 197.004 202.951Z" fill="#A2B844"/>
<path opacity="0.1" d="M160.237 110.377C129.227 110.565 104.239 135.857 104.429 166.867C104.616 197.877 129.909 222.865 160.918 222.675C191.928 222.488 216.916 197.195 216.726 166.185C216.539 135.176 191.246 110.188 160.237 110.377ZM160.862 213.244C135.061 213.401 114.016 192.612 113.859 166.811C113.702 141.01 134.492 119.965 160.293 119.808C186.094 119.651 207.139 140.44 207.293 166.241C207.45 192.043 186.661 213.087 160.86 213.242L160.862 213.244Z" fill="#434244"/>
<g filter="url(#filter1_d_2_534)">
<path d="M160.204 104.618C126.012 104.827 98.4632 132.711 98.6694 166.902C98.8779 201.094 126.762 228.643 160.953 228.437C195.145 228.228 222.694 200.344 222.488 166.153C222.279 131.961 194.395 104.412 160.204 104.618ZM160.89 218.038C132.441 218.212 109.239 195.29 109.068 166.841C108.894 138.393 131.816 115.19 160.265 115.019C188.713 114.846 211.916 137.767 212.087 166.216C212.26 194.665 189.339 217.867 160.89 218.038Z" fill="#C7E254"/>
</g>
<path opacity="0.08" d="M131.329 131.329C155.506 107.152 155.506 67.9534 131.329 43.7764C107.152 19.5993 67.9534 19.5993 43.7764 43.7764C19.5994 67.9534 19.5994 107.152 43.7764 131.329C67.9534 155.506 107.152 155.506 131.329 131.329Z" fill="#272525"/>
<path d="M121.745 120.733C141.862 100.617 141.862 68.0016 121.745 47.8854C101.629 27.7691 69.0143 27.7691 48.8981 47.8854C28.7818 68.0016 28.7818 100.617 48.8981 120.733C69.0143 140.849 101.629 140.849 121.745 120.733Z" fill="#A2B844"/>
<path opacity="0.1" d="M84.9817 28.159C53.972 28.3465 28.9839 53.6392 29.1737 84.6488C29.3611 115.658 54.6538 140.647 85.6635 140.457C116.673 140.269 141.661 114.977 141.471 83.967C141.284 52.9574 115.991 27.9692 84.9817 28.159ZM85.6049 131.029C59.8037 131.186 38.7589 110.396 38.6043 84.5949C38.4473 58.7938 59.2367 37.7489 85.0379 37.5943C110.839 37.4373 131.884 58.2268 132.039 84.0279C132.195 109.829 111.406 130.874 85.6049 131.029Z" fill="#272525"/>
<g filter="url(#filter2_d_2_534)">
<path d="M84.9466 22.3998C50.7551 22.6084 23.2061 50.4924 23.4123 84.6839C23.6208 118.875 51.5049 146.424 85.6963 146.218C119.888 146.01 147.437 118.126 147.231 83.9341C147.022 49.7427 119.138 22.1936 84.9466 22.3998ZM85.6354 135.82C57.1867 135.993 33.9839 113.072 33.8129 84.6229C33.6395 56.1742 56.5611 32.9738 85.0098 32.8004C113.459 32.627 136.661 55.5486 136.832 83.9974C137.006 112.446 114.084 135.649 85.6354 135.82Z" fill="#C7E254"/>
</g>
<g filter="url(#filter3_d_2_534)">
<path d="M181.266 182.748C180.105 184.745 178.511 186.412 176.494 187.776C174.467 189.137 172.043 190.151 169.226 190.819C167.995 191.105 166.705 191.303 165.396 191.466V199H155.604V191.617C152.815 191.401 150.149 191.002 147.639 190.367C143.807 189.403 138.788 185.511 138.788 185.511C138.358 185.281 138.073 184.876 138.013 184.428C137.95 183.976 138.119 183.52 138.471 183.198L143.377 178.691C143.906 178.211 144.727 178.12 145.362 178.477C145.362 178.477 149.035 181.405 151.817 182.103C154.599 182.798 157.36 183.147 160.115 183.147C163.588 183.147 166.459 182.583 168.736 181.457C171.017 180.322 172.154 178.568 172.154 176.172C172.154 174.446 171.596 173.086 170.471 172.086C169.35 171.094 167.453 170.469 164.776 170.195L155.988 169.501C150.784 169.035 146.77 167.702 143.951 165.518C141.123 163.326 139.719 160.001 139.719 155.558C139.719 153.098 140.259 150.908 141.346 148.982C142.435 147.056 143.913 145.43 145.794 144.104C147.674 142.775 149.864 141.78 152.357 141.117C153.4 140.839 154.493 140.657 155.604 140.49V134H165.396V140.36C167.682 140.566 169.857 140.903 171.881 141.415C175.316 142.276 178.924 144.867 178.924 144.867C179.375 145.081 179.682 145.485 179.76 145.946C179.838 146.414 179.671 146.874 179.315 147.211L174.713 151.5C174.223 151.956 173.465 152.075 172.838 151.778C172.838 151.778 170.114 149.996 167.76 149.433C165.407 148.87 162.936 148.584 160.333 148.584C156.93 148.584 154.416 149.183 152.793 150.375C151.165 151.575 150.357 153.134 150.357 155.056C150.357 156.788 150.925 158.113 152.089 159.038C153.245 159.97 155.196 160.575 157.945 160.831L165.647 161.434C171.356 161.898 175.679 163.29 178.606 165.613C181.538 167.94 183 171.328 183 175.772C183 178.436 182.421 180.754 181.266 182.748Z" fill="white"/>
</g>
<g filter="url(#filter4_d_2_534)">
<path d="M107.934 74.8709C109.158 67.8539 103.883 63.9398 96.6233 61.2452L99.225 51.7636L93.4613 50.1757L90.9295 59.4082C89.4213 58.9849 87.86 58.5914 86.3125 58.2018L88.8598 48.9139L83.0961 47.326L80.4944 56.8076C79.2413 56.4857 78.0021 56.1678 76.8083 55.8476L76.816 55.8199L68.8623 53.6322L67.1752 59.8023C67.1752 59.8023 71.454 60.8839 71.3615 60.9475C73.6999 61.6039 74.0841 63.1599 73.9792 64.3846L70.9968 75.2224L66.8379 90.3583C66.5351 91.0646 65.776 92.1205 64.1394 91.6761C64.1892 91.7647 59.9392 90.527 59.9392 90.527L56.8978 97.1083L64.4088 99.1718C65.8063 99.564 67.1761 99.9485 68.5182 100.325L65.8855 109.918L71.6492 111.506L74.2509 102.024C75.8205 102.494 77.3563 102.925 78.8407 103.327L76.2507 112.767L82.0144 114.355L84.6433 104.777C94.4997 106.886 101.961 106.308 105.302 97.4373C107.997 90.2811 105.447 86.0717 100.305 83.2251C104.122 82.445 107.03 80.0067 107.917 74.8809L107.934 74.8709ZM94.2214 93.1476C92.2546 100.314 80.2191 96.1298 76.2956 95.0584L79.7886 82.3483C83.6943 83.4296 96.2737 85.6766 94.2214 93.1476ZM96.4591 74.4866C94.6611 80.9988 84.6479 77.4268 81.3885 76.5418L84.5613 65.0258C87.8167 65.9246 98.3349 67.6975 96.4691 74.5043L96.4591 74.4866Z" fill="white"/>
</g>
<path d="M90.0587 209.952L77.0434 195.646C76.6287 195.192 75.8742 195.508 75.907 196.122L76.3428 204.229C64.9746 200.969 55.2769 193.985 48.8102 184.325C41.9288 174.044 39.5061 161.926 41.9616 150.133C42.0342 149.782 41.8163 149.437 41.4649 149.358L37.709 148.519C37.3552 148.439 37.0015 148.664 36.9265 149.02C34.1641 162.2 36.8515 175.728 44.5248 187.19C51.7366 197.963 62.5636 205.721 75.2416 209.275L71.1109 217.673C70.8438 218.216 71.3944 218.8 71.952 218.563L89.8291 210.995C90.2438 210.819 90.361 210.288 90.0587 209.952Z" fill="#C7E254"/>
<path d="M201.096 71.3827C193.027 61.2375 181.6 54.3936 168.671 51.8889L172.115 43.1401C172.331 42.5919 171.75 42.067 171.227 42.3412L153.974 51.3781C153.585 51.582 153.514 52.1091 153.835 52.409L168.029 65.6493C168.467 66.0594 169.177 65.6915 169.095 65.0964L167.992 57.0084C179.59 59.3256 189.826 65.49 197.064 74.5902C204.768 84.2786 208.174 96.1623 206.689 108.121C206.647 108.468 206.886 108.786 207.232 108.836L211.075 109.367C211.426 109.417 211.752 109.171 211.797 108.819C213.474 95.4523 209.688 82.1816 201.098 71.3827H201.096Z" fill="#C7E254"/>
</g>
<defs>
<filter id="filter0_d_2_534" x="19.4111" y="22.3987" width="207.078" height="214.039" filterUnits="userSpaceOnUse" color-interpolation-filters="sRGB">
<feFlood flood-opacity="0" result="BackgroundImageFix"/>
<feColorMatrix in="SourceAlpha" type="matrix" values="0 0 0 0 0 0 0 0 0 0 0 0 0 0 0 0 0 0 127 0" result="hardAlpha"/>
<feOffset dy="4"/>
<feGaussianBlur stdDeviation="2"/>
<feComposite in2="hardAlpha" operator="out"/>
<feColorMatrix type="matrix" values="0 0 0 0 0 0 0 0 0 0 0 0 0 0 0 0 0 0 0.35 0"/>
<feBlend mode="normal" in2="BackgroundImageFix" result="effect1_dropShadow_2_534"/>
<feBlend mode="normal" in="SourceGraphic" in2="effect1_dropShadow_2_534" result="shape"/>
</filter>
<filter id="filter1_d_2_534" x="94.6682" y="104.617" width="131.821" height="131.821" filterUnits="userSpaceOnUse" color-interpolation-filters="sRGB">
<feFlood flood-opacity="0" result="BackgroundImageFix"/>
<feColorMatrix in="SourceAlpha" type="matrix" values="0 0 0 0 0 0 0 0 0 0 0 0 0 0 0 0 0 0 127 0" result="hardAlpha"/>
<feOffset dy="4"/>
<feGaussianBlur stdDeviation="2"/>
<feComposite in2="hardAlpha" operator="out"/>
<feColorMatrix type="matrix" values="0 0 0 0 0 0 0 0 0 0 0 0 0 0 0 0 0 0 0.25 0"/>
<feBlend mode="normal" in2="BackgroundImageFix" result="effect1_dropShadow_2_534"/>
<feBlend mode="normal" in="SourceGraphic" in2="effect1_dropShadow_2_534" result="shape"/>
</filter>
<filter id="filter2_d_2_534" x="19.4111" y="22.3987" width="131.821" height="131.821" filterUnits="userSpaceOnUse" color-interpolation-filters="sRGB">
<feFlood flood-opacity="0" result="BackgroundImageFix"/>
<feColorMatrix in="SourceAlpha" type="matrix" values="0 0 0 0 0 0 0 0 0 0 0 0 0 0 0 0 0 0 127 0" result="hardAlpha"/>
<feOffset dy="4"/>
<feGaussianBlur stdDeviation="2"/>
<feComposite in2="hardAlpha" operator="out"/>
<feColorMatrix type="matrix" values="0 0 0 0 0 0 0 0 0 0 0 0 0 0 0 0 0 0 0.3 0"/>
<feBlend mode="normal" in2="BackgroundImageFix" result="effect1_dropShadow_2_534"/>
<feBlend mode="normal" in="SourceGraphic" in2="effect1_dropShadow_2_534" result="shape"/>
</filter>
<filter id="filter3_d_2_534" x="135" y="131" width="53" height="73" filterUnits="userSpaceOnUse" color-interpolation-filters="sRGB">
<feFlood flood-opacity="0" result="BackgroundImageFix"/>
<feColorMatrix in="SourceAlpha" type="matrix" values="0 0 0 0 0 0 0 0 0 0 0 0 0 0 0 0 0 0 127 0" result="hardAlpha"/>
<feOffset dx="1" dy="1"/>
<feGaussianBlur stdDeviation="2"/>
<feComposite in2="hardAlpha" operator="out"/>
<feColorMatrix type="matrix" values="0 0 0 0 0 0 0 0 0 0 0 0 0 0 0 0 0 0 0.25 0"/>
<feBlend mode="normal" in2="BackgroundImageFix" result="effect1_dropShadow_2_534"/>
<feBlend mode="normal" in="SourceGraphic" in2="effect1_dropShadow_2_534" result="shape"/>
</filter>
<filter id="filter4_d_2_534" x="53.8977" y="44.3259" width="59.2131" height="75.0293" filterUnits="userSpaceOnUse" color-interpolation-filters="sRGB">
<feFlood flood-opacity="0" result="BackgroundImageFix"/>
<feColorMatrix in="SourceAlpha" type="matrix" values="0 0 0 0 0 0 0 0 0 0 0 0 0 0 0 0 0 0 127 0" result="hardAlpha"/>
<feOffset dx="1" dy="1"/>
<feGaussianBlur stdDeviation="2"/>
<feComposite in2="hardAlpha" operator="out"/>
<feColorMatrix type="matrix" values="0 0 0 0 0 0 0 0 0 0 0 0 0 0 0 0 0 0 0.25 0"/>
<feBlend mode="normal" in2="BackgroundImageFix" result="effect1_dropShadow_2_534"/>
<feBlend mode="normal" in="SourceGraphic" in2="effect1_dropShadow_2_534" result="shape"/>
</filter>
</defs>
</svg>
