<svg width="392" height="255" viewBox="0 0 392 255" fill="none" xmlns="http://www.w3.org/2000/svg">
<g opacity="0.8" filter="url(#filter0_dd_0_499)">
<rect x="4.87372" width="383.245" height="244.852" rx="30" transform="rotate(0.20445 4.87372 0)" fill="url(#paint0_radial_0_499)" fill-opacity="0.3" shape-rendering="crispEdges"/>
<rect x="4.87372" width="383.245" height="244.852" rx="30" transform="rotate(0.20445 4.87372 0)" fill="url(#paint1_radial_0_499)" fill-opacity="0.8" shape-rendering="crispEdges"/>
<rect x="4.87372" width="383.245" height="244.852" rx="30" transform="rotate(0.20445 4.87372 0)" fill="url(#paint2_linear_0_499)" fill-opacity="0.2" shape-rendering="crispEdges"/>
<rect x="5.87014" y="1.00356" width="381.245" height="242.852" rx="29" transform="rotate(0.20445 5.87014 1.00356)" stroke="url(#paint3_linear_0_499)" stroke-opacity="0.6" stroke-width="2" shape-rendering="crispEdges"/>
</g>
<path d="M34.1963 181.958H41.5176V183.188H35.5225V186.237H41.0664V187.399H35.5225V190.804H41.6201V192H34.1963V181.958ZM46.0744 184.679H47.2434V185.943C47.3391 185.697 47.5738 185.399 47.9475 185.048C48.3212 184.692 48.7518 184.515 49.2395 184.515C49.2622 184.515 49.301 184.517 49.3557 184.521C49.4104 184.526 49.5038 184.535 49.6359 184.549V185.848C49.563 185.834 49.4947 185.825 49.4309 185.82C49.3716 185.816 49.3055 185.813 49.2326 185.813C48.6128 185.813 48.1366 186.014 47.8039 186.415C47.4712 186.812 47.3049 187.27 47.3049 187.789V192H46.0744V184.679ZM53.5023 184.713H54.7533V192H53.5023V184.713ZM53.5023 181.958H54.7533V183.353H53.5023V181.958ZM62.2428 184.467C63.0676 184.467 63.7376 184.667 64.2525 185.068C64.7721 185.469 65.0842 186.16 65.1891 187.14H63.9928C63.9199 186.688 63.7535 186.315 63.4937 186.019C63.234 185.718 62.817 185.567 62.2428 185.567C61.4589 185.567 60.8984 185.95 60.5611 186.716C60.3424 187.213 60.233 187.826 60.233 188.555C60.233 189.288 60.388 189.906 60.6979 190.407C61.0077 190.909 61.4954 191.159 62.1607 191.159C62.6712 191.159 63.0745 191.004 63.3707 190.694C63.6715 190.38 63.8788 189.951 63.9928 189.409H65.1891C65.0523 190.38 64.7105 191.091 64.1637 191.542C63.6168 191.989 62.9173 192.212 62.065 192.212C61.108 192.212 60.3447 191.863 59.775 191.166C59.2053 190.464 58.9205 189.589 58.9205 188.541C58.9205 187.256 59.2327 186.256 59.857 185.54C60.4814 184.825 61.2766 184.467 62.2428 184.467ZM81.0088 189.006C81.0088 189.854 80.8835 190.512 80.6328 190.981C80.168 191.838 79.2839 192.267 77.9805 192.267C77.2285 192.267 76.5859 192.064 76.0527 191.658C75.5195 191.248 75.2529 190.521 75.2529 189.478V188.76H76.5312V189.478C76.5312 190.024 76.652 190.437 76.8936 190.715C77.1396 190.988 77.5202 191.125 78.0352 191.125C78.7598 191.125 79.2337 190.877 79.457 190.38C79.5938 190.075 79.6621 189.498 79.6621 188.65V181.958H81.0088V189.006ZM88.6213 191.207C89.437 191.207 89.9953 190.899 90.2961 190.284C90.6014 189.664 90.7541 188.976 90.7541 188.22C90.7541 187.536 90.6447 186.98 90.426 186.552C90.0796 185.877 89.4826 185.54 88.635 185.54C87.883 185.54 87.3361 185.827 86.9943 186.401C86.6525 186.976 86.4816 187.668 86.4816 188.479C86.4816 189.259 86.6525 189.908 86.9943 190.428C87.3361 190.947 87.8784 191.207 88.6213 191.207ZM88.6691 184.467C89.6125 184.467 90.41 184.781 91.0617 185.41C91.7134 186.039 92.0393 186.964 92.0393 188.186C92.0393 189.366 91.7521 190.341 91.1779 191.111C90.6037 191.882 89.7128 192.267 88.5051 192.267C87.4979 192.267 86.6981 191.927 86.1057 191.248C85.5132 190.564 85.217 189.648 85.217 188.5C85.217 187.27 85.5292 186.29 86.1535 185.561C86.7779 184.831 87.6164 184.467 88.6691 184.467ZM96.309 184.679H97.4779V185.718C97.8243 185.289 98.1911 184.982 98.5785 184.795C98.9659 184.608 99.3965 184.515 99.8705 184.515C100.91 184.515 101.611 184.877 101.976 185.602C102.176 185.998 102.277 186.565 102.277 187.304V192H101.026V187.386C101.026 186.939 100.96 186.579 100.828 186.306C100.609 185.85 100.212 185.622 99.6381 185.622C99.3464 185.622 99.1072 185.652 98.9203 185.711C98.5831 185.811 98.2868 186.012 98.0316 186.312C97.8266 186.554 97.6921 186.805 97.6283 187.064C97.5691 187.32 97.5395 187.687 97.5395 188.165V192H96.309V184.679ZM109.951 184.515C110.47 184.515 110.974 184.638 111.462 184.884C111.949 185.125 112.321 185.44 112.576 185.827C112.822 186.196 112.986 186.627 113.068 187.119C113.141 187.456 113.177 187.994 113.177 188.732H107.811C107.834 189.475 108.009 190.072 108.338 190.523C108.666 190.97 109.174 191.193 109.862 191.193C110.504 191.193 111.017 190.981 111.4 190.558C111.619 190.312 111.774 190.027 111.865 189.703H113.075C113.043 189.972 112.936 190.273 112.754 190.605C112.576 190.934 112.375 191.202 112.152 191.412C111.778 191.777 111.316 192.023 110.764 192.15C110.468 192.223 110.133 192.26 109.759 192.26C108.848 192.26 108.075 191.929 107.442 191.269C106.809 190.603 106.492 189.674 106.492 188.479C106.492 187.304 106.811 186.349 107.449 185.615C108.087 184.882 108.921 184.515 109.951 184.515ZM111.913 187.755C111.863 187.222 111.746 186.796 111.564 186.477C111.227 185.884 110.664 185.588 109.876 185.588C109.31 185.588 108.837 185.793 108.454 186.203C108.071 186.609 107.868 187.126 107.845 187.755H111.913ZM118.226 189.703C118.263 190.113 118.365 190.428 118.534 190.646C118.844 191.043 119.382 191.241 120.147 191.241C120.603 191.241 121.004 191.143 121.35 190.947C121.697 190.747 121.87 190.439 121.87 190.024C121.87 189.71 121.731 189.471 121.453 189.307C121.275 189.206 120.924 189.09 120.4 188.958L119.423 188.712C118.798 188.557 118.338 188.384 118.042 188.192C117.513 187.86 117.249 187.399 117.249 186.812C117.249 186.119 117.497 185.558 117.994 185.13C118.495 184.701 119.167 184.487 120.011 184.487C121.113 184.487 121.909 184.811 122.396 185.458C122.702 185.868 122.85 186.31 122.841 186.784H121.679C121.656 186.506 121.558 186.253 121.385 186.025C121.102 185.702 120.612 185.54 119.915 185.54C119.45 185.54 119.097 185.629 118.855 185.807C118.618 185.984 118.5 186.219 118.5 186.511C118.5 186.83 118.657 187.085 118.971 187.276C119.154 187.39 119.423 187.491 119.778 187.577L120.592 187.775C121.476 187.99 122.068 188.197 122.369 188.397C122.847 188.712 123.087 189.206 123.087 189.881C123.087 190.533 122.838 191.095 122.342 191.569C121.849 192.043 121.097 192.28 120.086 192.28C118.997 192.28 118.224 192.034 117.768 191.542C117.317 191.045 117.076 190.432 117.044 189.703H118.226Z" fill="white"/>
<path d="M37.6279 163.534V159.098L34.4902 163.534H37.6279ZM37.6484 167V164.607H33.3555V163.404L37.8398 157.184H38.8789V163.534H40.3213V164.607H38.8789V167H37.6484ZM47.4006 161.312C47.9429 161.312 48.3667 161.162 48.6721 160.861C48.9774 160.556 49.1301 160.194 49.1301 159.774C49.1301 159.41 48.9842 159.075 48.6926 158.77C48.4009 158.464 47.9566 158.312 47.3596 158.312C46.7671 158.312 46.3387 158.464 46.0744 158.77C45.8101 159.075 45.6779 159.433 45.6779 159.843C45.6779 160.303 45.8488 160.663 46.1906 160.923C46.5324 161.183 46.9357 161.312 47.4006 161.312ZM47.4758 166.159C48.0454 166.159 48.5171 166.007 48.8908 165.701C49.2691 165.391 49.4582 164.931 49.4582 164.32C49.4582 163.687 49.2645 163.206 48.8771 162.878C48.4898 162.55 47.993 162.386 47.3869 162.386C46.799 162.386 46.3182 162.554 45.9445 162.892C45.5754 163.224 45.3908 163.687 45.3908 164.279C45.3908 164.79 45.5594 165.232 45.8967 165.605C46.2385 165.975 46.7648 166.159 47.4758 166.159ZM45.7258 161.784C45.384 161.638 45.1174 161.467 44.926 161.271C44.566 160.907 44.3859 160.433 44.3859 159.85C44.3859 159.12 44.6503 158.494 45.1789 157.97C45.7076 157.446 46.4572 157.184 47.4279 157.184C48.3667 157.184 49.1027 157.432 49.6359 157.929C50.1691 158.421 50.4357 158.997 50.4357 159.658C50.4357 160.269 50.2808 160.763 49.9709 161.142C49.7977 161.356 49.5288 161.565 49.1643 161.771C49.5699 161.957 49.8889 162.172 50.1213 162.413C50.5542 162.869 50.7707 163.461 50.7707 164.19C50.7707 165.052 50.4813 165.783 49.9025 166.385C49.3238 166.982 48.5057 167.28 47.4484 167.28C46.496 167.28 45.6893 167.023 45.0285 166.508C44.3723 165.988 44.0441 165.236 44.0441 164.252C44.0441 163.673 44.1854 163.174 44.468 162.755C44.7505 162.331 45.1698 162.007 45.7258 161.784ZM58.2807 157.17C59.3744 157.17 60.1355 157.455 60.5639 158.024C60.9968 158.59 61.2133 159.173 61.2133 159.774H59.9965C59.9236 159.387 59.8074 159.084 59.6479 158.865C59.3516 158.455 58.9027 158.25 58.3012 158.25C57.613 158.25 57.0661 158.569 56.6605 159.207C56.2549 159.84 56.0294 160.75 55.9838 161.935C56.2663 161.52 56.6218 161.21 57.0502 161.005C57.4421 160.823 57.8796 160.731 58.3627 160.731C59.183 160.731 59.8985 160.993 60.5092 161.518C61.1199 162.042 61.4252 162.823 61.4252 163.862C61.4252 164.751 61.1358 165.539 60.557 166.228C59.9783 166.911 59.1534 167.253 58.0824 167.253C57.1664 167.253 56.3757 166.907 55.7104 166.214C55.045 165.517 54.7123 164.345 54.7123 162.7C54.7123 161.483 54.8604 160.451 55.1566 159.604C55.7263 157.981 56.7676 157.17 58.2807 157.17ZM58.1918 166.159C58.8389 166.159 59.322 165.943 59.641 165.51C59.9646 165.072 60.1264 164.557 60.1264 163.965C60.1264 163.464 59.9828 162.987 59.6957 162.536C59.4086 162.08 58.8868 161.853 58.1303 161.853C57.6016 161.853 57.1368 162.028 56.7357 162.379C56.3393 162.73 56.141 163.258 56.141 163.965C56.141 164.585 56.321 165.106 56.6811 165.53C57.0456 165.95 57.5492 166.159 58.1918 166.159ZM72.1002 157.375V158.448C71.7857 158.754 71.3665 159.285 70.8424 160.041C70.3229 160.798 69.8626 161.613 69.4615 162.488C69.065 163.34 68.7643 164.118 68.5592 164.819C68.427 165.271 68.2561 165.997 68.0465 167H66.6861C66.996 165.132 67.6796 163.272 68.7369 161.422C69.3613 160.337 70.0175 159.401 70.7057 158.612H65.2916V157.375H72.1002ZM86.1631 157.17C87.2568 157.17 88.0179 157.455 88.4463 158.024C88.8792 158.59 89.0957 159.173 89.0957 159.774H87.8789C87.806 159.387 87.6898 159.084 87.5303 158.865C87.234 158.455 86.7852 158.25 86.1836 158.25C85.4954 158.25 84.9486 158.569 84.543 159.207C84.1374 159.84 83.9118 160.75 83.8662 161.935C84.1488 161.52 84.5042 161.21 84.9326 161.005C85.3245 160.823 85.762 160.731 86.2451 160.731C87.0654 160.731 87.7809 160.993 88.3916 161.518C89.0023 162.042 89.3076 162.823 89.3076 163.862C89.3076 164.751 89.0182 165.539 88.4395 166.228C87.8607 166.911 87.0358 167.253 85.9648 167.253C85.0488 167.253 84.2581 166.907 83.5928 166.214C82.9274 165.517 82.5947 164.345 82.5947 162.7C82.5947 161.483 82.7428 160.451 83.0391 159.604C83.6087 157.981 84.6501 157.17 86.1631 157.17ZM86.0742 166.159C86.7214 166.159 87.2044 165.943 87.5234 165.51C87.847 165.072 88.0088 164.557 88.0088 163.965C88.0088 163.464 87.8652 162.987 87.5781 162.536C87.291 162.08 86.7692 161.853 86.0127 161.853C85.484 161.853 85.0192 162.028 84.6182 162.379C84.2217 162.73 84.0234 163.258 84.0234 163.965C84.0234 164.585 84.2035 165.106 84.5635 165.53C84.9281 165.95 85.4316 166.159 86.0742 166.159ZM99.9826 157.375V158.448C99.6682 158.754 99.2489 159.285 98.7248 160.041C98.2053 160.798 97.745 161.613 97.3439 162.488C96.9475 163.34 96.6467 164.118 96.4416 164.819C96.3094 165.271 96.1385 165.997 95.9289 167H94.5686C94.8784 165.132 95.562 163.272 96.6193 161.422C97.2437 160.337 97.8999 159.401 98.5881 158.612H93.174V157.375H99.9826ZM107.349 157.17C108.443 157.17 109.204 157.455 109.632 158.024C110.065 158.59 110.282 159.173 110.282 159.774H109.065C108.992 159.387 108.876 159.084 108.716 158.865C108.42 158.455 107.971 158.25 107.37 158.25C106.681 158.25 106.135 158.569 105.729 159.207C105.323 159.84 105.098 160.75 105.052 161.935C105.335 161.52 105.69 161.21 106.119 161.005C106.51 160.823 106.948 160.731 107.431 160.731C108.251 160.731 108.967 160.993 109.578 161.518C110.188 162.042 110.494 162.823 110.494 163.862C110.494 164.751 110.204 165.539 109.625 166.228C109.047 166.911 108.222 167.253 107.151 167.253C106.235 167.253 105.444 166.907 104.779 166.214C104.113 165.517 103.781 164.345 103.781 162.7C103.781 161.483 103.929 160.451 104.225 159.604C104.795 157.981 105.836 157.17 107.349 157.17ZM107.26 166.159C107.907 166.159 108.39 165.943 108.709 165.51C109.033 165.072 109.195 164.557 109.195 163.965C109.195 163.464 109.051 162.987 108.764 162.536C108.477 162.08 107.955 161.853 107.199 161.853C106.67 161.853 106.205 162.028 105.804 162.379C105.408 162.73 105.209 163.258 105.209 163.965C105.209 164.585 105.389 165.106 105.749 165.53C106.114 165.95 106.618 166.159 107.26 166.159ZM115.577 164.505C115.659 165.207 115.985 165.692 116.554 165.961C116.846 166.098 117.183 166.166 117.566 166.166C118.295 166.166 118.835 165.934 119.186 165.469C119.537 165.004 119.713 164.489 119.713 163.924C119.713 163.24 119.503 162.712 119.084 162.338C118.669 161.964 118.17 161.777 117.587 161.777C117.163 161.777 116.798 161.859 116.493 162.023C116.192 162.188 115.935 162.415 115.72 162.707L114.654 162.646L115.399 157.375H120.485V158.564H116.322L115.905 161.285C116.133 161.112 116.349 160.982 116.554 160.896C116.919 160.745 117.34 160.67 117.819 160.67C118.717 160.67 119.478 160.959 120.102 161.538C120.726 162.117 121.039 162.851 121.039 163.739C121.039 164.664 120.752 165.48 120.177 166.187C119.608 166.893 118.696 167.246 117.443 167.246C116.645 167.246 115.939 167.023 115.324 166.576C114.713 166.125 114.371 165.435 114.298 164.505H115.577ZM138.458 157.375V158.448C138.144 158.754 137.724 159.285 137.2 160.041C136.681 160.798 136.22 161.613 135.819 162.488C135.423 163.34 135.122 164.118 134.917 164.819C134.785 165.271 134.614 165.997 134.404 167H133.044C133.354 165.132 134.037 163.272 135.095 161.422C135.719 160.337 136.375 159.401 137.063 158.612H131.649V157.375H138.458ZM149.051 157.375V158.448C148.737 158.754 148.317 159.285 147.793 160.041C147.274 160.798 146.813 161.613 146.412 162.488C146.016 163.34 145.715 164.118 145.51 164.819C145.378 165.271 145.207 165.997 144.997 167H143.637C143.947 165.132 144.63 163.272 145.688 161.422C146.312 160.337 146.968 159.401 147.656 158.612H142.242V157.375H149.051ZM153.662 160.068V159.125C154.551 159.038 155.171 158.895 155.522 158.694C155.873 158.489 156.135 158.008 156.308 157.252H157.279V167H155.966V160.068H153.662ZM170.237 157.375V158.448C169.922 158.754 169.503 159.285 168.979 160.041C168.46 160.798 167.999 161.613 167.598 162.488C167.202 163.34 166.901 164.118 166.696 164.819C166.564 165.271 166.393 165.997 166.183 167H164.823C165.133 165.132 165.816 163.272 166.874 161.422C167.498 160.337 168.154 159.401 168.842 158.612H163.428V157.375H170.237ZM184.013 161.312C184.555 161.312 184.979 161.162 185.284 160.861C185.59 160.556 185.742 160.194 185.742 159.774C185.742 159.41 185.596 159.075 185.305 158.77C185.013 158.464 184.569 158.312 183.972 158.312C183.379 158.312 182.951 158.464 182.687 158.77C182.422 159.075 182.29 159.433 182.29 159.843C182.29 160.303 182.461 160.663 182.803 160.923C183.145 161.183 183.548 161.312 184.013 161.312ZM184.088 166.159C184.658 166.159 185.129 166.007 185.503 165.701C185.881 165.391 186.07 164.931 186.07 164.32C186.07 163.687 185.877 163.206 185.489 162.878C185.102 162.55 184.605 162.386 183.999 162.386C183.411 162.386 182.93 162.554 182.557 162.892C182.188 163.224 182.003 163.687 182.003 164.279C182.003 164.79 182.172 165.232 182.509 165.605C182.851 165.975 183.377 166.159 184.088 166.159ZM182.338 161.784C181.996 161.638 181.729 161.467 181.538 161.271C181.178 160.907 180.998 160.433 180.998 159.85C180.998 159.12 181.262 158.494 181.791 157.97C182.32 157.446 183.069 157.184 184.04 157.184C184.979 157.184 185.715 157.432 186.248 157.929C186.781 158.421 187.048 158.997 187.048 159.658C187.048 160.269 186.893 160.763 186.583 161.142C186.41 161.356 186.141 161.565 185.776 161.771C186.182 161.957 186.501 162.172 186.733 162.413C187.166 162.869 187.383 163.461 187.383 164.19C187.383 165.052 187.093 165.783 186.515 166.385C185.936 166.982 185.118 167.28 184.061 167.28C183.108 167.28 182.301 167.023 181.641 166.508C180.984 165.988 180.656 165.236 180.656 164.252C180.656 163.673 180.798 163.174 181.08 162.755C181.363 162.331 181.782 162.007 182.338 161.784ZM192.657 164.635C192.694 165.314 192.956 165.783 193.444 166.043C193.694 166.18 193.977 166.248 194.291 166.248C194.879 166.248 195.38 166.004 195.795 165.517C196.21 165.024 196.504 164.029 196.677 162.529C196.404 162.962 196.064 163.268 195.658 163.445C195.257 163.618 194.824 163.705 194.36 163.705C193.416 163.705 192.669 163.411 192.117 162.823C191.571 162.235 191.297 161.479 191.297 160.554C191.297 159.665 191.568 158.883 192.111 158.209C192.653 157.535 193.453 157.197 194.51 157.197C195.936 157.197 196.921 157.84 197.463 159.125C197.764 159.831 197.914 160.715 197.914 161.777C197.914 162.976 197.734 164.038 197.374 164.963C196.777 166.503 195.765 167.273 194.339 167.273C193.382 167.273 192.655 167.023 192.158 166.521C191.662 166.02 191.413 165.391 191.413 164.635H192.657ZM194.524 162.625C195.011 162.625 195.456 162.465 195.857 162.146C196.262 161.823 196.465 161.26 196.465 160.458C196.465 159.738 196.283 159.202 195.918 158.852C195.558 158.496 195.098 158.318 194.537 158.318C193.936 158.318 193.457 158.521 193.102 158.927C192.751 159.328 192.575 159.866 192.575 160.54C192.575 161.178 192.73 161.686 193.04 162.064C193.35 162.438 193.845 162.625 194.524 162.625ZM205.486 157.17C206.579 157.17 207.341 157.455 207.769 158.024C208.202 158.59 208.418 159.173 208.418 159.774H207.202C207.129 159.387 207.012 159.084 206.853 158.865C206.557 158.455 206.108 158.25 205.506 158.25C204.818 158.25 204.271 158.569 203.866 159.207C203.46 159.84 203.234 160.75 203.189 161.935C203.471 161.52 203.827 161.21 204.255 161.005C204.647 160.823 205.085 160.731 205.568 160.731C206.388 160.731 207.104 160.993 207.714 161.518C208.325 162.042 208.63 162.823 208.63 163.862C208.63 164.751 208.341 165.539 207.762 166.228C207.183 166.911 206.358 167.253 205.288 167.253C204.371 167.253 203.581 166.907 202.915 166.214C202.25 165.517 201.917 164.345 201.917 162.7C201.917 161.483 202.066 160.451 202.362 159.604C202.931 157.981 203.973 157.17 205.486 157.17ZM205.397 166.159C206.044 166.159 206.527 165.943 206.846 165.51C207.17 165.072 207.331 164.557 207.331 163.965C207.331 163.464 207.188 162.987 206.901 162.536C206.614 162.08 206.092 161.853 205.335 161.853C204.807 161.853 204.342 162.028 203.941 162.379C203.544 162.73 203.346 163.258 203.346 163.965C203.346 164.585 203.526 165.106 203.886 165.53C204.251 165.95 204.754 166.159 205.397 166.159ZM213.843 164.635C213.88 165.314 214.142 165.783 214.629 166.043C214.88 166.18 215.163 166.248 215.477 166.248C216.065 166.248 216.566 166.004 216.981 165.517C217.396 165.024 217.69 164.029 217.863 162.529C217.589 162.962 217.25 163.268 216.844 163.445C216.443 163.618 216.01 163.705 215.546 163.705C214.602 163.705 213.855 163.411 213.303 162.823C212.756 162.235 212.483 161.479 212.483 160.554C212.483 159.665 212.754 158.883 213.296 158.209C213.839 157.535 214.639 157.197 215.696 157.197C217.122 157.197 218.107 157.84 218.649 159.125C218.95 159.831 219.1 160.715 219.1 161.777C219.1 162.976 218.92 164.038 218.56 164.963C217.963 166.503 216.951 167.273 215.525 167.273C214.568 167.273 213.841 167.023 213.344 166.521C212.848 166.02 212.599 165.391 212.599 164.635H213.843ZM215.71 162.625C216.197 162.625 216.642 162.465 217.043 162.146C217.448 161.823 217.651 161.26 217.651 160.458C217.651 159.738 217.469 159.202 217.104 158.852C216.744 158.496 216.284 158.318 215.723 158.318C215.122 158.318 214.643 158.521 214.288 158.927C213.937 159.328 213.761 159.866 213.761 160.54C213.761 161.178 213.916 161.686 214.226 162.064C214.536 162.438 215.031 162.625 215.71 162.625Z" fill="white"/>
<g filter="url(#filter1_d_0_499)">
<path d="M62.8456 65.2877C66.6274 65.2877 69.6974 68.3541 69.6974 72.1314C69.6973 75.9086 66.6273 78.9745 62.8456 78.9745C59.0639 78.9744 55.9944 75.9085 55.9943 72.1314C55.9943 68.3542 59.0639 65.2878 62.8456 65.2877ZM47.4912 56.6661C49.3943 54.7652 52.4701 54.7654 54.3732 56.6661C56.2764 58.567 56.2764 61.639 54.3732 63.5399C52.4701 65.4409 49.3943 65.4409 47.4912 63.5399C45.5882 61.639 45.5881 58.5669 47.4912 56.6661ZM71.3118 56.6661C73.215 54.7653 76.2908 54.7654 78.194 56.6661C80.0971 58.567 80.097 61.639 78.194 63.5399C76.2907 65.4409 73.215 65.4409 71.3118 63.5399C69.4088 61.639 69.4087 58.5669 71.3118 56.6661ZM41.5729 46.7079C43.5435 46.7079 45.1462 48.3082 45.1463 50.2765C45.1463 52.2449 43.5436 53.8458 41.5729 53.8458C39.6022 53.8456 38 52.2448 38 50.2765C38.0001 48.3084 39.6023 46.7081 41.5729 46.7079ZM62.8395 46.7079C64.8102 46.7079 66.4128 48.3082 66.413 50.2765C66.413 52.2449 64.8102 53.8458 62.8395 53.8458C60.8688 53.8456 59.2666 52.2449 59.2666 50.2765C59.2668 48.3083 60.8689 46.708 62.8395 46.7079ZM84.1122 46.7079C86.0828 46.7079 87.6856 48.3082 87.6857 50.2765C87.6857 52.2449 86.083 53.8458 84.1122 53.8458C82.1415 53.8457 80.5394 52.2449 80.5394 50.2765C80.5394 48.3083 82.1416 46.7079 84.1122 46.7079ZM71.7193 39C73.3769 39 74.7273 40.349 74.7275 42.0045C74.7275 43.6602 73.3831 45.0097 71.7193 45.0097C70.0618 45.0096 68.7112 43.6602 68.7112 42.0045C68.7114 40.349 70.0619 39 71.7193 39ZM53.9651 39C55.6226 39.0001 56.9731 40.349 56.9732 42.0045C56.9732 43.6601 55.6288 45.009 53.9651 45.0091C52.3075 45.0091 50.957 43.6602 50.957 42.0045C50.9571 40.349 52.3075 39 53.9651 39Z" fill="#C7E254" fill-opacity="0.8" shape-rendering="crispEdges"/>
</g>
<circle opacity="0.5" cx="307" cy="59" r="22" fill="#D9D9D9"/>
<circle opacity="0.5" cx="334" cy="59" r="22" fill="#F5F5F5"/>
<defs>
<filter id="filter0_dd_0_499" x="0.106873" y="0.106934" width="391.902" height="254.005" filterUnits="userSpaceOnUse" color-interpolation-filters="sRGB">
<feFlood flood-opacity="0" result="BackgroundImageFix"/>
<feColorMatrix in="SourceAlpha" type="matrix" values="0 0 0 0 0 0 0 0 0 0 0 0 0 0 0 0 0 0 127 0" result="hardAlpha"/>
<feOffset dy="4"/>
<feGaussianBlur stdDeviation="2"/>
<feComposite in2="hardAlpha" operator="out"/>
<feColorMatrix type="matrix" values="0 0 0 0 0 0 0 0 0 0 0 0 0 0 0 0 0 0 0.25 0"/>
<feBlend mode="normal" in2="BackgroundImageFix" result="effect1_dropShadow_0_499"/>
<feColorMatrix in="SourceAlpha" type="matrix" values="0 0 0 0 0 0 0 0 0 0 0 0 0 0 0 0 0 0 127 0" result="hardAlpha"/>
<feOffset dy="4"/>
<feGaussianBlur stdDeviation="2"/>
<feComposite in2="hardAlpha" operator="out"/>
<feColorMatrix type="matrix" values="0 0 0 0 0 0 0 0 0 0 0 0 0 0 0 0 0 0 0.25 0"/>
<feBlend mode="normal" in2="effect1_dropShadow_0_499" result="effect2_dropShadow_0_499"/>
<feBlend mode="normal" in="SourceGraphic" in2="effect2_dropShadow_0_499" result="shape"/>
</filter>
<filter id="filter1_d_0_499" x="37" y="39" width="51.6857" height="41.9746" filterUnits="userSpaceOnUse" color-interpolation-filters="sRGB">
<feFlood flood-opacity="0" result="BackgroundImageFix"/>
<feColorMatrix in="SourceAlpha" type="matrix" values="0 0 0 0 0 0 0 0 0 0 0 0 0 0 0 0 0 0 127 0" result="hardAlpha"/>
<feOffset dy="1"/>
<feGaussianBlur stdDeviation="0.5"/>
<feComposite in2="hardAlpha" operator="out"/>
<feColorMatrix type="matrix" values="0 0 0 0 0 0 0 0 0 0 0 0 0 0 0 0 0 0 0.05 0"/>
<feBlend mode="normal" in2="BackgroundImageFix" result="effect1_dropShadow_0_499"/>
<feBlend mode="normal" in="SourceGraphic" in2="effect1_dropShadow_0_499" result="shape"/>
</filter>
<radialGradient id="paint0_radial_0_499" cx="0" cy="0" r="1" gradientUnits="userSpaceOnUse" gradientTransform="translate(207.99 6.21003) rotate(89.5917) scale(531.859 1342.67)">
<stop stop-color="#C7E254" stop-opacity="0.6"/>
<stop offset="1" stop-opacity="0"/>
</radialGradient>
<radialGradient id="paint1_radial_0_499" cx="0" cy="0" r="1" gradientUnits="userSpaceOnUse" gradientTransform="translate(195.841 -29.8117) rotate(89.8634) scale(274.665 429.906)">
<stop stop-color="#C7E254"/>
<stop offset="1" stop-color="#C7E254" stop-opacity="0.89"/>
</radialGradient>
<linearGradient id="paint2_linear_0_499" x1="305.579" y1="244.852" x2="88.2244" y2="-0.718425" gradientUnits="userSpaceOnUse">
<stop stop-color="#C7E254" stop-opacity="0"/>
<stop offset="1" stop-color="#C7E254"/>
</linearGradient>
<linearGradient id="paint3_linear_0_499" x1="4.87372" y1="0.775417" x2="170.847" y2="347.948" gradientUnits="userSpaceOnUse">
<stop stop-color="#C7E254" stop-opacity="0.6"/>
<stop offset="1"/>
</linearGradient>
</defs>
</svg>
