<svg width="31" height="25" viewBox="0 0 31 25" fill="none" xmlns="http://www.w3.org/2000/svg">
<path d="M30.9241 3.84104C30.7952 3.18992 30.5047 2.57452 30.0809 2.05715C29.9948 1.94853 29.9048 1.85189 29.8063 1.75387C29.0523 0.995822 28.0034 0.561035 26.9285 0.561035H4.07141C2.98454 0.561035 1.96232 0.984864 1.19308 1.75429C1.09572 1.85141 1.00544 1.94901 0.916074 2.06108C0.494063 2.57628 0.20483 3.19083 0.0790742 3.84286C0.0265195 4.09891 0 4.36423 0 4.63263V20.6858C0 21.2443 0.113465 21.7882 0.338396 22.3052C0.533055 22.7643 0.828402 23.1996 1.19283 23.5638C1.28462 23.6552 1.37581 23.7395 1.47317 23.8216C2.20179 24.425 3.1244 24.7571 4.07141 24.7571H26.9285C27.8816 24.7571 28.8033 24.4238 29.53 23.815C29.6271 23.7364 29.7171 23.6539 29.8072 23.5638C30.1594 23.2119 30.4394 22.8076 30.6407 22.3617L30.6672 22.2982C30.8879 21.7909 31 21.2489 31 20.6859V4.63263C31 4.36774 30.9744 4.10067 30.9241 3.84104ZM2.10842 3.15946C2.166 3.07518 2.23951 2.98866 2.33329 2.89415C2.79884 2.42885 3.41624 2.17279 4.07135 2.17279H26.9284C27.5893 2.17279 28.2069 2.42927 28.6672 2.89506C28.7467 2.9754 28.8227 3.06459 28.8889 3.15371L29.0637 3.38863L16.8635 14.0216C16.4874 14.3514 16.0031 14.5328 15.4998 14.5328C15.0015 14.5328 14.5176 14.3518 14.137 14.0221L1.949 3.39166L2.10842 3.15946ZM1.61993 20.8276C1.61333 20.7839 1.61182 20.7353 1.61182 20.6858V4.96503L11.0795 13.2243L1.70736 21.3958L1.61993 20.8276ZM28.1482 22.8212C27.7818 23.0326 27.3597 23.1448 26.9285 23.1448H4.07141C3.6399 23.1448 3.21807 23.0326 2.85188 22.8212L2.46874 22.5991L12.1524 14.1602L13.2136 15.0833C13.8502 15.6359 14.662 15.9406 15.4999 15.9406C16.3409 15.9406 17.1541 15.6359 17.7902 15.0833L18.8511 14.1597L28.5314 22.5996L28.1482 22.8212ZM29.3878 20.6858C29.3878 20.7345 29.3869 20.7825 29.3807 20.8253L29.2968 21.3988L19.9206 13.2287L29.3878 4.96903V20.6858Z" fill="#C7E254"/>
</svg>
