<svg width="24" height="32" viewBox="0 0 24 32" fill="none" xmlns="http://www.w3.org/2000/svg">
<path d="M12.114 0C5.555 0 0 5.58717 0 12.2044C0 19.1346 6.439 26.2218 10.77 31.203C10.787 31.223 11.487 32 12.349 32H12.425C13.288 32 13.983 31.223 14 31.203C18.064 26.5308 24 18.8256 24 12.2044C24 5.58617 19.667 0 12.114 0ZM12.515 29.8609C12.48 29.8959 12.429 29.9349 12.384 29.9679C12.338 29.9359 12.288 29.8959 12.251 29.8609L11.728 29.2589C7.622 24.5488 1.999 18.0976 1.999 12.2034C1.999 6.67121 6.631 1.99806 12.113 1.99806C18.942 1.99806 21.999 7.12322 21.999 12.2034C21.999 16.6775 18.808 22.6197 12.515 29.8609ZM12.035 6.05519C8.722 6.05519 6.035 8.74127 6.035 12.0554C6.035 15.3695 8.722 18.0556 12.035 18.0556C15.348 18.0556 18.035 15.3685 18.035 12.0554C18.035 8.74227 15.349 6.05519 12.035 6.05519ZM12.035 16.0555C9.829 16.0555 7.989 14.2174 7.989 12.0114C7.989 9.80531 9.783 8.01125 11.989 8.01125C14.196 8.01125 15.989 9.80531 15.989 12.0114C15.99 14.2174 14.242 16.0555 12.035 16.0555Z" fill="#C7E254"/>
</svg>
